<?xml version="1.0" encoding="UTF-8"?>
<svg id="Layer_1" data-name="Layer 1" xmlns="http://www.w3.org/2000/svg" viewBox="0 0 355.64 244.06">
  <defs>
    <style>
      .cls-1, .cls-2 {
        fill: #fff;
        stroke-width: 0px;
      }

      .cls-2 {
        fill-rule: evenodd;
      }
    </style>
  </defs>
  <path class="cls-2" d="m355.49,116.74s-.02.02-.07.07c-.01.02-.03.03-.05.05-.63.56-3.68,2.99-10.05,3.4-.14.01-.28.02-.42.03-.12,0-.23.01-.35.02-.17,0-.35.01-.52.02-.45.01-.91,0-1.39,0-1.82-.04-3.87-.25-6.15-.67-3.48-.64-6.23-1.08-8.63-1.35h0c-.8-.09-1.56-.17-2.3-.22-11.85-6.26-31.42-16.66-33.1-17.74-.04-.03-.1-.08-.17-.13-3.34-3-30.56-43.22-30.56-43.22l-.04.03-.08.05-.11.07,25.24,40.2c.89,1.41.36,3.27-1.12,4.01l-23.46,11.73-21.32-35.68-9.88,27.16c-1.9,5.22-6.59,8.91-12.11,9.53l6.67-22.98c4.73-16.31,2.91-33.82-5.1-48.8l-18.78-35.14,42.37,61.53,17.46,34.43-2.33-33.42,16.14,30.26-15.13-36.31,23.31,36.31-22-42.8-16.22,10.2-.05-.08-.04-.05L197.18,0l-.03.03-.07.08-44.98,53.3-.1-.08-19.25-14.09s-.02.03-.06.08c-.63.88-6.44,8.78-17.08,16.65-.52.39-1.04.77-1.56,1.12-.02-.02-.04-.05-.07-.07-.01-.01-.03-.03-.04-.04-.79-.83-1.56-1.65-2.29-2.44-5.69-6.06-9.51-10.4-9.51-10.4l-10.51-9.89h0s-.04.12-.04.12l-16.09,43.25s-2.07,9.92-14.12,23.2c-10.56,11.62-13.62,8.87-19.17,12.1-.05,0-.1-.01-.15-.01-.52-.06-1.07-.09-1.63-.1-.18,0-.37,0-.56,0h-.08c-8.78.06-21.68,5.16-30.19,9.01-4.22,1.91-7.37,3.51-8.39,4.04-.13.07-.22.12-.28.15-.05.03-.08.04-.08.04,1.43-.26,3.05-.39,4.81-.42.5,0,1.01,0,1.54,0,9.59.13,22.71,2.77,33.71,2.94.63.01,1.26.01,1.88,0,2.29-.02,4.47-.17,6.49-.5,2.29-.37,3.6-.65,4.29-.86.02,0,.04,0,.07-.02,1.32.25,4.8.58,12.79.87.57.02,1.12.04,1.65.06.2,0,.39.01.58.02.25,0,.5.01.75.02.23,0,.46,0,.69.02.68.02,1.32.03,1.94.04.11,0,.21,0,.31,0,.22,0,.43,0,.65,0,1.1.01,2.09.01,2.99,0,.43,0,.85-.01,1.24-.02.74-.02,1.42-.04,2.03-.08.29-.02.57-.04.83-.05.26-.02.5-.04.73-.06,7.15-.67,2.82-2.74,12.08-3.71,1.11-.12,2.19-.18,3.26-.21.54-.01,1.08-.01,1.6,0,.22,0,.45,0,.67.01,6.72.17,12.74,1.69,18.4,1.88h.56c.3.02.61.02.91.01.15,0,.31,0,.46,0,2.31-.06,4.57-.39,6.79-1.21,4.3-1.57,10.08-2.38,16.96-2.47.91,0,1.84,0,2.79,0,7.97.1,17.22,1.07,27.25,2.82,4.99.87,8.33,1.26,10.72,1.3.12,0,.24,0,.36,0,.21,0,.41,0,.61,0,.1,0,.19,0,.29,0,.09,0,.18,0,.27-.01,5.59-.3,4.9-3.05,13.57-5.17,1.78-.43,3.89-.67,6.25-.76,0,0,.02,0,.03,0,.34-.01.68-.02,1.03-.03.69,0,1.41-.01,2.14,0,11.19.13,26.34,2.62,37.84,2.78.66,0,1.31,0,1.95,0,2.36-.02,4.54-.17,6.46-.48,2.49-.4,5.03-.61,7.58-.69.37,0,.74-.02,1.12-.02.86,0,1.73,0,2.59,0,.46,0,.91.01,1.37.03,6.63.17,13.19.92,19.08,1.03.75.01,1.49.02,2.22,0,2.54-.03,4.94-.23,7.13-.69,4.38-.93,7.5-1.33,11.29-1.38.45,0,.91,0,1.38,0,5.39.04,12.43.7,25.93,1.52l.33.11.46.16-.32-.17-.11-.06h-.02s.05,0,.08,0c1.28.08,2.48.13,3.61.17.38,0,.76.02,1.13.02.88.01,1.72.02,2.51,0,.17,0,.33,0,.49,0,.16,0,.32,0,.48-.01.45-.01.89-.03,1.3-.05.19,0,.37-.02.55-.03.1,0,.2-.01.3-.02l.42-.03c.16-.01.32-.03.48-.04.23-.02.45-.04.67-.06.22-.02.43-.05.64-.07,10.82-1.25,8.78-5.7,8.78-5.7ZM134.05,42.46l42.67,30.82c7.73,5.58,13.83,13.12,17.67,21.84l4.21,9.56-11.1,2.34-57.49-55.48,4.03-9.08Zm-52.3,50.43l13.97-51.43,38.39,53.58c2.08,2.9,0,6.94-3.57,6.94h-15.66l5.04-5.04-3.03-5.17-17.15-28.11-5.04,38.33h-6.02c-4.74,0-8.19-4.51-6.95-9.09Z"/>
  <polygon class="cls-2" points="261.49 57.13 261.44 57.16 261.4 57.07 261.36 57.02 261.14 56.58 261.4 56.99 261.44 57.05 261.49 57.13"/>
  <g>
    <g>
      <path class="cls-1" d="m26.84,176.12v11.29h-12.64c-6.97,0-13.42-3.8-13.42-11.71s5.98-11.65,12.8-11.65c7.44-.05,13.27,3.75,13.27,12.07Zm-17.43-17.84c-1.72,0-3.17-1.46-3.17-3.17s1.46-3.22,3.17-3.22,3.23,1.46,3.23,3.22-1.46,3.17-3.23,3.17Zm-1.82,17.32c0,4.84,3.12,7.13,6.61,7.13h5.72v-6.92c0-4.53-2.91-7.07-6.24-7.07-3.38-.05-6.09,2.5-6.09,6.87Zm10.46-17.32c-1.77,0-3.17-1.46-3.17-3.17s1.4-3.22,3.17-3.22,3.17,1.46,3.17,3.22-1.4,3.17-3.17,3.17Z"/>
      <path class="cls-1" d="m40.26,148.55v38.86h-6.92v-37.51l6.92-1.35Z"/>
      <path class="cls-1" d="m43.75,200.62l-1.56-4.32c4.21-.62,6.19-2.6,6.19-6.97v-22.42l6.92-1.35v17.17h4.01c.31,0,.52.21.52.52v3.64c0,.31-.21.52-.52.52h-4.01v1.35c-.36,6.82-3.8,10.93-11.55,11.86Z"/>
      <path class="cls-1" d="m58.84,183.25c0-.31.21-.52.52-.52h13.01c.31,0,.52.21.52.52v3.64c0,.31-.21.52-.52.52h-13.01c-.31,0-.52-.21-.52-.52v-3.64Z"/>
      <path class="cls-1" d="m71.85,183.25c0-.31.21-.52.52-.52h13.01c.31,0,.52.21.52.52v3.64c0,.31-.21.52-.52.52h-13.01c-.31,0-.52-.21-.52-.52v-3.64Z"/>
      <path class="cls-1" d="m117.79,151.83c0,1.92-1.25,3.54-3.69,3.54-1.4,0-2.7-.52-3.33-1.82-.52,1.04-1.35,1.82-2.6,1.82-1.56,0-3.33-.94-3.33-3.64v-2.5h1.98v2.39c0,1.35.47,2.13,1.66,2.13s1.72-.78,1.82-2.29v-2.24h2.03v2.5c0,1.2.47,2.03,1.72,2.03,1.46,0,1.77-1.04,1.77-2.6v-1.92h1.98v2.6Z"/>
      <path class="cls-1" d="m93.44,182.73v-14.26l6.97-1.3v15.56h9.68v-14.31l6.92-1.35v13.37c0,.83-.1,1.61-.31,2.29h9.57v-15.87l6.92-1.35v17.22h4.01c.31,0,.52.21.52.52v3.64c0,.31-.21.52-.52.52h-3.85l-1.66-2.39c-1.25,1.51-3.17,2.39-5.52,2.39h-8.95l-1.72-2.39c-1.2,1.51-3.12,2.39-5.46,2.39h-24.66c-.31,0-.52-.21-.52-.52v-3.64c0-.31.21-.52.52-.52h8.06Z"/>
      <path class="cls-1" d="m136.73,183.25c0-.31.21-.52.52-.52h13.01c.31,0,.52.21.52.52v3.64c0,.31-.21.52-.52.52h-13.01c-.31,0-.52-.21-.52-.52v-3.64Z"/>
      <path class="cls-1" d="m149.74,183.25c0-.31.21-.52.52-.52h13.01c.31,0,.52.21.52.52v3.64c0,.31-.21.52-.52.52h-13.01c-.31,0-.52-.21-.52-.52v-3.64Z"/>
      <path class="cls-1" d="m163.26,187.41c-.31,0-.52-.21-.52-.52v-3.64c0-.31.21-.52.52-.52h8.06v-32.88l6.92-1.3v38.86h-14.98Z"/>
      <path class="cls-1" d="m193.28,148.55v38.86h-6.92v-37.51l6.92-1.35Z"/>
      <path class="cls-1" d="m223.67,187.41l-2.18-4.68h14.36v-6.92c0-4.58-3.38-7.13-7.02-7.13h-3.23l-8.79,25.75h-6.97l10.2-30.43h8.69c7.13,0,13.99,3.95,13.99,12.23v6.5h3.02c.31,0,.52.21.52.52v3.64c0,.31-.21.52-.52.52h-22.06Z"/>
      <path class="cls-1" d="m245.21,183.25c0-.31.21-.52.52-.52h13.01c.31,0,.52.21.52.52v3.64c0,.31-.21.52-.52.52h-13.01c-.31,0-.52-.21-.52-.52v-3.64Z"/>
      <path class="cls-1" d="m258.22,183.25c0-.31.21-.52.52-.52h13.01c.31,0,.52.21.52.52v3.64c0,.31-.21.52-.52.52h-13.01c-.31,0-.52-.21-.52-.52v-3.64Z"/>
      <path class="cls-1" d="m305.98,176.22v6.5h2.97c.31,0,.52.21.52.52v3.64c0,.31-.21.52-.52.52h-21.38l-3.28-4.68h14.78v-6.92c0-4.58-3.33-7.13-7.02-7.13h-3.17l-1.72,7.18c-1.87,7.6-5.88,11.55-13.84,11.55h-1.56c-.31,0-.52-.21-.52-.52v-3.64c0-.31.21-.52.52-.52h1.14c4.63,0,6.04-2.76,7.28-7.75l2.97-10.98h8.84c7.13,0,13.99,3.95,13.99,12.23Z"/>
      <path class="cls-1" d="m308.43,183.25c0-.31.21-.52.52-.52h13.01c.31,0,.52.21.52.52v3.64c0,.31-.21.52-.52.52h-13.01c-.31,0-.52-.21-.52-.52v-3.64Z"/>
      <path class="cls-1" d="m332.15,182.73c-2.34-1.72-3.95-4.37-3.95-7.91-.05-7.49,7.08-10.98,14.05-10.98h11.97v23.57h-32.26c-.31,0-.52-.21-.52-.52v-3.64c0-.31.21-.52.52-.52h10.2Zm5.36-24.45c-1.72,0-3.17-1.46-3.17-3.17s1.46-3.22,3.17-3.22,3.23,1.46,3.23,3.22-1.46,3.17-3.23,3.17Zm4.63,10.25c-3.75,0-7.08,2.45-7.08,7.18,0,4.47,3.02,7.02,6.87,7.02h5.36v-14.2h-5.15Zm4.01-10.25c-1.77,0-3.17-1.46-3.17-3.17s1.4-3.22,3.17-3.22,3.17,1.46,3.17,3.22-1.4,3.17-3.17,3.17Z"/>
    </g>
    <g>
      <path class="cls-1" d="m24.98,232.03c0,3.25-.93,5.76-2.45,7.64l2.77,1.79-1.37,2.3-3.4-2.18c-2.3,1.7-5.19,2.48-8,2.48-6.12,0-12.54-3.73-12.54-12.03s6.42-12,12.48-12,12.51,3.64,12.51,12Zm-21.02,0c0,5.04,3.01,9.4,8.51,9.4,2.09,0,3.85-.63,5.19-1.67l-4.48-2.86,1.37-2.3,4.9,3.13c1.01-1.61,1.55-3.58,1.55-5.7,0-5.02-3.04-9.37-8.54-9.37s-8.51,4.36-8.51,9.37Z"/>
      <path class="cls-1" d="m38.83,219.76v24.06h-3.97v-23.31l3.97-.75Z"/>
      <path class="cls-1" d="m54.73,220.39l7.1,18.48,7.07-18.48h5.31v23.43h-3.97v-14.15l.15-4.75-6.9,18.89h-3.37l-6.89-18.89.15,4.75v14.15h-3.97v-23.43h5.31Z"/>
      <path class="cls-1" d="m97.44,220.39l8.69,23.43h-4.15l-2.54-7.19h-9.67l-2.54,7.19h-4.12l8.6-23.43h5.73Zm1.1,13.58l-3.94-10.95-3.94,10.95h7.88Z"/>
      <path class="cls-1" d="m120.33,220.39l7.11,18.48,7.07-18.48h5.31v23.43h-3.97v-14.15l.15-4.75-6.9,18.89h-3.37l-6.9-18.89.15,4.75v14.15h-3.97v-23.43h5.31Z"/>
      <path class="cls-1" d="m175.57,220.39l8.68,23.43h-4.15l-2.54-7.19h-9.67l-2.54,7.19h-4.12l8.6-23.43h5.73Zm1.1,13.58l-3.94-10.95-3.94,10.95h7.88Z"/>
      <path class="cls-1" d="m201.44,243.82h-8.33v-2.69h8.03c3.34,0,5.4-1.31,5.4-3.55,0-5.94-14.66-3.43-14.66-11.49,0-3.76,3.19-5.7,8.93-5.7h7.91v2.63h-7.7c-4.3,0-5.22,1.73-5.22,3.13,0,5.58,14.74,3.05,14.74,11.37,0,3.7-2.92,6.3-9.1,6.3Z"/>
      <path class="cls-1" d="m228.54,243.82h-8.33v-2.69h8.03c3.34,0,5.4-1.31,5.4-3.55,0-5.94-14.66-3.43-14.66-11.49,0-3.76,3.19-5.7,8.92-5.7h7.91v2.63h-7.7c-4.3,0-5.22,1.73-5.22,3.13,0,5.58,14.74,3.05,14.74,11.37,0,3.7-2.92,6.3-9.1,6.3Z"/>
      <path class="cls-1" d="m258.89,220.39l8.68,23.43h-4.15l-2.54-7.19h-9.67l-2.54,7.19h-4.12l8.6-23.43h5.73Zm1.1,13.58l-3.94-10.95-3.94,10.95h7.88Z"/>
      <path class="cls-1" d="m292.28,243.82l-4.9-7.07c-.87-1.22-2.27-1.97-3.76-1.97h-3.19v9.04h-3.97v-23.43h10.18c5.19,0,8.69,3.1,8.69,7.19,0,3.31-2.27,5.82-5.67,6.75,1.1.81,2.06,1.85,2.92,3.1l4.45,6.39h-4.74Zm-5.64-11.4c3.13,0,4.66-2.27,4.66-4.6s-1.46-4.75-4.66-4.75h-6.21v9.34h6.21Z"/>
      <path class="cls-1" d="m318.51,220.39l8.69,23.43h-4.15l-2.54-7.19h-9.67l-2.54,7.19h-4.12l8.6-23.43h5.73Zm1.1,13.58l-3.94-10.95-3.94,10.95h7.88Z"/>
      <path class="cls-1" d="m349.91,220.39v2.69h-6.98v20.75h-3.97v-20.75h-6.98v-2.69h17.94Z"/>
    </g>
  </g>
</svg>